<svg width="22" height="22" viewBox="0 0 22 22" fill="none" xmlns="http://www.w3.org/2000/svg">
<g clip-path="url(#clip0_4565_776)">
<path d="M18.4533 2.6665H6.00889C5.39556 2.6665 4.91556 2.97762 4.59556 3.44873L0.17778 10.0798C-0.0622202 10.4354 -0.0622202 10.8976 0.17778 11.2532L4.59556 17.8754C4.91556 18.3465 5.39556 18.6665 6.00889 18.6665H18.4533C19.4311 18.6665 20.2311 17.8665 20.2311 16.8887V4.44428C20.2311 3.4665 19.4311 2.6665 18.4533 2.6665ZM18.4533 16.8887H6.07111L1.92 10.6665L6.06222 4.44428H18.4533V16.8887ZM9.66222 14.4887L12.2311 11.9198L14.8 14.4887C15.1467 14.8354 15.7067 14.8354 16.0533 14.4887C16.4 14.1421 16.4 13.5821 16.0533 13.2354L13.4844 10.6665L16.0533 8.09761C16.4 7.75095 16.4 7.19095 16.0533 6.84428C15.7067 6.49761 15.1467 6.49761 14.8 6.84428L12.2311 9.41317L9.66222 6.84428C9.31556 6.49761 8.75556 6.49761 8.40889 6.84428C8.06222 7.19095 8.06222 7.75095 8.40889 8.09761L10.9778 10.6665L8.40889 13.2354C8.06222 13.5821 8.06222 14.1421 8.40889 14.4887C8.75556 14.8354 9.31556 14.8354 9.66222 14.4887Z" fill="black"/>
</g>
<defs>
<clipPath id="clip0_4565_776">
<rect width="21.3333" height="21.3333" fill="white"/>
</clipPath>
</defs>
</svg>
