<svg width="24" height="24" viewBox="0 0 24 24" fill="none" xmlns="http://www.w3.org/2000/svg">
<path fill-rule="evenodd" clip-rule="evenodd" d="M15.8525 18.99H21.0039C21.4379 18.99 21.8159 18.705 21.9489 18.291C22.0819 17.877 21.9249 17.42 21.5709 17.167C21.5226 17.1305 19.0039 15.2305 19.0039 8.98999C19.0039 5.13099 15.8629 1.98999 12.0039 1.98999C8.14493 1.98999 5.00393 5.13099 5.00393 8.98999C5.00393 15.227 2.4886 17.128 2.44935 17.1577C2.08335 17.4017 1.91893 17.858 2.04693 18.28C2.17493 18.702 2.56393 18.99 3.00393 18.99H8.14694C8.57123 20.7216 10.1404 22.01 12.0049 22.01C13.8647 22.01 15.4299 20.721 15.8525 18.99ZM13.7251 18.99H10.2857C10.6237 19.6066 11.2676 20.011 12.0049 20.011C12.7459 20.011 13.392 19.598 13.7251 18.99ZM18.8639 16.99H5.14493C6.04893 15.507 7.00393 12.994 7.00493 8.98999C7.00493 6.23299 9.24793 3.98999 12.0049 3.98999C14.7619 3.98999 17.0049 6.23299 17.0049 8.98999C17.0049 12.994 17.9599 15.508 18.8639 16.99Z" fill="black"/>
</svg>
