<svg width="24" height="24" viewBox="0 0 24 24" fill="none" xmlns="http://www.w3.org/2000/svg">
<path d="M12.0049 17C11.4529 17 11.0049 16.553 11.0049 16V12C11.0049 11.447 11.4529 11 12.0049 11C12.5569 11 13.0049 11.447 13.0049 12V16C13.0049 16.553 12.5569 17 12.0049 17Z" fill="black"/>
<path d="M11.9893 9H12.0113C12.5633 9 13.0003 8.553 13.0003 8C13.0003 7.447 12.5413 7 11.9893 7C11.4373 7 10.9893 7.447 10.9893 8C10.9893 8.553 11.4373 9 11.9893 9Z" fill="black"/>
<path fill-rule="evenodd" clip-rule="evenodd" d="M11.9851 2.00098C6.46512 2.00098 1.99512 6.48098 1.99512 12.001C1.99512 17.521 6.46512 22.001 11.9851 22.001C17.5151 22.001 21.9951 17.521 21.9951 12.001C21.9951 6.48098 17.5151 2.00098 11.9851 2.00098ZM11.9951 20.001C7.57512 20.001 3.99512 16.421 3.99512 12.001C3.99512 7.58098 7.57512 4.00098 11.9951 4.00098C16.4151 4.00098 19.9951 7.58098 19.9951 12.001C19.9951 16.421 16.4151 20.001 11.9951 20.001Z" fill="black"/>
</svg>
