<svg width="24" height="24" viewBox="0 0 24 24" fill="none" xmlns="http://www.w3.org/2000/svg">
<path d="M14.88 14.548C15.023 14.619 15.176 14.653 15.326 14.653C15.693 14.653 16.046 14.451 16.221 14.101C16.468 13.607 16.268 13.006 15.774 12.759L13 11.372V7C13 6.448 12.552 6 12 6C11.448 6 11 6.448 11 7V11.99C11 12.368 11.214 12.715 11.553 12.884L14.88 14.548Z" fill="black"/>
<path fill-rule="evenodd" clip-rule="evenodd" d="M1.99512 12.001C1.99512 6.48098 6.46512 2.00098 11.9851 2.00098C17.5151 2.00098 21.9951 6.48098 21.9951 12.001C21.9951 17.521 17.5151 22.001 11.9851 22.001C6.46512 22.001 1.99512 17.521 1.99512 12.001ZM3.99512 12.001C3.99512 16.421 7.57512 20.001 11.9951 20.001C16.4151 20.001 19.9951 16.421 19.9951 12.001C19.9951 7.58098 16.4151 4.00098 11.9951 4.00098C7.57512 4.00098 3.99512 7.58098 3.99512 12.001Z" fill="black"/>
</svg>
