<svg width="24" height="24" viewBox="0 0 24 24" fill="none" xmlns="http://www.w3.org/2000/svg">
<circle cx="12" cy="12" r="10" fill="white"/>
<path d="M12.0039 2C6.47391 2 2.00391 6.48 2.00391 12C2.00391 17.52 6.47391 22 12.0039 22C17.5239 22 22.0039 17.52 22.0039 12C22.0039 6.48 17.5239 2 12.0039 2ZM16.2039 14.79C16.5939 15.18 16.5939 15.82 16.2039 16.21C16.0139 16.4 15.7539 16.5 15.5039 16.5C15.2439 16.5 14.9839 16.4 14.7939 16.21L12.0039 13.41L9.20391 16.21C9.01391 16.4 8.75391 16.5 8.50391 16.5C8.24391 16.5 7.98391 16.4 7.79391 16.21C7.40391 15.82 7.40391 15.18 7.79391 14.79L10.5839 12L7.79391 9.21C7.40391 8.82 7.40391 8.18 7.79391 7.79C8.18391 7.4 8.81391 7.4 9.20391 7.79L12.0039 10.59L14.7939 7.79C15.1839 7.4 15.8139 7.4 16.2039 7.79C16.5939 8.18 16.5939 8.82 16.2039 9.21L13.4139 12L16.2039 14.79Z" fill="#FF554B"/>
</svg>
