<svg width="24" height="24" viewBox="0 0 24 24" fill="none" xmlns="http://www.w3.org/2000/svg">
<path fill-rule="evenodd" clip-rule="evenodd" d="M17.7069 6.29312C18.0978 6.68404 18.0976 7.31617 17.7069 7.70719L12.9539 12.4591C12.4269 12.9841 11.5708 12.9841 11.0448 12.4601L6.29281 7.70719C6.09781 7.51219 5.99984 7.25616 5.99984 7.00016C5.99991 6.74424 6.09788 6.48806 6.29281 6.29312C6.68383 5.90237 7.31596 5.90221 7.70687 6.29312L11.9989 10.5861L16.2928 6.29312C16.6838 5.90237 17.317 5.90221 17.7069 6.29312ZM17.7069 13.2931C18.0978 13.684 18.0976 14.3162 17.7069 14.7072L12.9539 19.4591C12.4269 19.9841 11.5708 19.9841 11.0448 19.4601L6.29281 14.7072C6.09781 14.5122 5.99984 14.2562 5.99984 14.0002C5.99991 13.7442 6.09788 13.4881 6.29281 13.2931C6.68383 12.9024 7.31596 12.9022 7.70687 13.2931L11.9989 17.5861L16.2928 13.2931C16.6838 12.9024 17.317 12.9022 17.7069 13.2931Z" fill="black"/>
</svg>
