<svg width="24" height="24" viewBox="0 0 24 24" fill="none" xmlns="http://www.w3.org/2000/svg">
<path d="M6.66745 7.63673C6.56057 8.77673 6.48557 10.7942 7.1587 11.653C7.1587 11.653 6.84182 9.43673 9.68245 6.65611C10.8262 5.53673 11.0906 4.01423 10.6912 2.87236C10.4643 2.22548 10.0499 1.69111 9.68995 1.31798C9.47995 1.09861 9.6412 0.736734 9.94682 0.749859C11.7956 0.832359 14.7918 1.34611 16.0649 4.54111C16.6237 5.94361 16.6649 7.39298 16.3987 8.86673C16.2299 9.80798 15.6299 11.9005 16.9987 12.1574C17.9756 12.3411 18.4481 11.5649 18.6599 11.0061C18.7481 10.7736 19.0537 10.7155 19.2187 10.9011C20.8687 12.778 21.0093 14.9886 20.6681 16.8917C20.0081 20.5705 16.2824 23.248 12.5812 23.248C7.95745 23.248 4.27682 20.6024 3.32245 15.8136C2.93807 13.8805 3.13307 10.0555 6.11432 7.35548C6.33557 7.15298 6.69745 7.33298 6.66745 7.63673Z" fill="url(#paint0_radial_4571_979)"/>
<path d="M14.2706 14.516C12.5663 12.3222 13.3294 9.81909 13.7475 8.82159C13.8038 8.69034 13.6538 8.56659 13.5356 8.64722C12.8025 9.14597 11.3006 10.3197 10.6013 11.9716C9.65438 14.2047 9.72188 15.2978 10.2825 16.6328C10.62 17.4372 10.2281 17.6078 10.0313 17.6378C9.84001 17.6678 9.66376 17.5403 9.52313 17.4072C9.12001 17.0228 8.82938 16.5222 8.69063 15.9822C8.66063 15.866 8.50876 15.8341 8.43938 15.9297C7.91438 16.6553 7.64251 17.8197 7.62938 18.6428C7.58813 21.1872 9.69001 23.2497 12.2325 23.2497C15.4369 23.2497 17.7713 19.706 15.93 16.7435C15.3956 15.881 14.8931 15.3166 14.2706 14.516Z" fill="url(#paint1_radial_4571_979)"/>
<defs>
<radialGradient id="paint0_radial_4571_979" cx="0" cy="0" r="1" gradientUnits="userSpaceOnUse" gradientTransform="translate(11.6655 23.3063) rotate(-179.751) scale(13.2352 21.7163)">
<stop offset="0.3144" stop-color="#FF9800"/>
<stop offset="0.6616" stop-color="#FF6D00"/>
<stop offset="0.9715" stop-color="#F44336"/>
</radialGradient>
<radialGradient id="paint1_radial_4571_979" cx="0" cy="0" r="1" gradientTransform="matrix(-0.139872 13.8473 10.4212 0.105303 12.4087 10.1358)" gradientUnits="userSpaceOnUse">
<stop offset="0.2141" stop-color="#FFF176"/>
<stop offset="0.3275" stop-color="#FFF27D"/>
<stop offset="0.4868" stop-color="#FFF48F"/>
<stop offset="0.6722" stop-color="#FFF7AD"/>
<stop offset="0.7931" stop-color="#FFF9C4"/>
<stop offset="0.8221" stop-color="#FFF8BD" stop-opacity="0.804"/>
<stop offset="0.8627" stop-color="#FFF6AB" stop-opacity="0.529"/>
<stop offset="0.9101" stop-color="#FFF38D" stop-opacity="0.2088"/>
<stop offset="0.9409" stop-color="#FFF176" stop-opacity="0"/>
</radialGradient>
</defs>
</svg>
