<svg width="24" height="24" viewBox="0 0 24 24" fill="none" xmlns="http://www.w3.org/2000/svg">
<path d="M18.4297 9.26001C17.94 8.05023 19.7899 7.30025 20.29 8.51978C20.9 9.93978 21.1399 11.5505 20.9199 13.2405C20.3998 17.2002 17.1902 20.4098 13.2305 20.9299C12.5805 21.0099 11.9501 21.0305 11.3301 20.9905L11.8906 21.5305C12.8196 22.4205 11.4404 23.8395 10.5205 22.9299L7.90039 20.3098C7.78042 20.1898 7.6904 20.0401 7.65039 19.8801C7.56039 19.5501 7.64039 19.1899 7.90039 18.9299L10.5205 16.3098C10.9005 15.9301 11.5205 15.9299 11.9004 16.3098L11.9199 16.3303C12.2999 16.7103 12.2999 17.3302 11.9199 17.7102L10.7402 18.8899C11.5302 19.0399 12.3703 19.0497 13.2402 18.8997C16.0901 18.4096 18.4006 16.1001 18.8906 13.2502C19.1406 11.8102 18.9497 10.45 18.4297 9.26001ZM12.1104 2.47974C11.1804 1.58974 12.5605 0.170324 13.4805 1.08032L16.0996 3.70044C16.2196 3.82042 16.3096 3.97015 16.3496 4.13013C16.4396 4.46013 16.3596 4.82032 16.0996 5.08032L15.3301 5.84985L13.4805 7.70044C13.1005 8.08044 12.4796 8.08044 12.0996 7.70044L12.0801 7.67993C11.7001 7.29993 11.7001 6.68003 12.0801 6.30005L13.2598 5.12036C12.4698 4.9704 11.6297 4.95963 10.7598 5.10962C7.90989 5.59968 5.60039 7.91013 5.11035 10.76C4.86035 12.2 5.05031 13.5602 5.57031 14.7502C6.05994 15.96 4.21012 16.71 3.70996 15.4905C3.09996 14.0705 2.86008 12.4598 3.08008 10.7698C3.60021 6.80992 6.81061 3.60031 10.7705 3.08032C11.4203 3.00037 12.0501 2.9798 12.6699 3.01978L12.1104 2.47974Z" fill="black"/>
</svg>
