<svg width="24" height="24" viewBox="0 0 24 24" fill="none" xmlns="http://www.w3.org/2000/svg">
<path d="M7.04902 4.29785C8.34202 4.29785 9.62502 4.89485 10.479 5.89585L10.935 6.42985C11.494 7.08385 12.505 7.08385 13.064 6.42985L13.52 5.89585C14.372 4.89785 15.654 4.30285 16.948 4.30285C17.788 4.30285 18.578 4.55085 19.291 5.03685C20.299 5.72785 20.953 6.92685 20.996 8.16085C21.108 11.5009 17.584 14.6959 12.248 19.5339L12.117 19.6529C12.081 19.6859 12.038 19.7029 11.987 19.7029C11.953 19.7029 11.902 19.6949 11.852 19.6489L11.749 19.5559L11.683 19.4959C6.38302 14.6809 2.88202 11.4999 3.00202 8.17585C3.04702 6.92985 3.70002 5.72785 4.70802 5.03685C5.42402 4.54585 6.21102 4.29785 7.04902 4.29785ZM7.04902 2.29785C5.87802 2.29785 4.67902 2.63185 3.57702 3.38685C2.03802 4.44285 1.07102 6.22385 1.00502 8.10385C0.851021 12.3699 4.63402 15.7899 10.406 21.0349L10.516 21.1339C10.932 21.5119 11.461 21.7019 11.989 21.7019C12.521 21.7019 13.054 21.5098 13.474 21.1229L13.595 21.0129C19.368 15.7789 23.139 12.3589 22.996 8.09285C22.93 6.22385 21.962 4.44185 20.423 3.38685C19.321 2.63585 18.12 2.30285 16.949 2.30285C15.035 2.30285 13.201 3.19185 12 4.59685C10.8 3.19085 8.96302 2.29785 7.04902 2.29785Z" fill="black"/>
</svg>
