<svg width="20" height="20" viewBox="0 0 20 20" fill="none" xmlns="http://www.w3.org/2000/svg">
<path d="M5.87418 1.91504C4.89835 1.91504 3.89918 2.19337 2.98085 2.82254C1.69835 3.70254 0.892517 5.18671 0.837517 6.75337C0.709184 10.3084 3.86168 13.1584 8.67168 17.5292L8.76335 17.6117C9.11002 17.9267 9.55085 18.085 9.99085 18.085C10.4342 18.085 10.8784 17.925 11.2284 17.6025L11.3292 17.5109C16.14 13.1492 19.2825 10.2992 19.1634 6.74421C19.1084 5.18671 18.3017 3.70171 17.0192 2.82254C16.1009 2.19671 15.1 1.91921 14.1242 1.91921C12.5292 1.91921 11.0009 2.66004 10 3.83087C9.00002 2.65921 7.46918 1.91504 5.87418 1.91504Z" fill="#FF554B"/>
</svg>
