<svg width="24" height="24" viewBox="0 0 24 24" fill="none" xmlns="http://www.w3.org/2000/svg">
<path d="M11.928 14.38C11.375 14.38 10.928 13.933 10.928 13.38V12.662C10.928 12.231 11.203 11.85 11.612 11.713C12.268 11.49 13.629 10.768 13.629 9.96198C13.63 9.23898 13.173 8.59398 12.492 8.35498C12.063 8.20398 11.601 8.22898 11.193 8.42598C10.784 8.62198 10.475 8.96598 10.325 9.39398C10.141 9.91498 9.56702 10.188 9.05102 10.006C8.52902 9.82198 8.25402 9.25098 8.43802 8.72998C8.76502 7.79698 9.43702 7.04898 10.328 6.62098C11.22 6.19398 12.224 6.13898 13.156 6.46698C14.636 6.98798 15.63 8.39198 15.629 9.96198C15.629 11.794 13.931 12.861 12.929 13.332V13.38C12.928 13.933 12.481 14.38 11.928 14.38Z" fill="black"/>
<path d="M11.0039 16.924C11.0039 17.477 11.4559 17.924 12.0089 17.924C12.5619 17.924 13.0089 17.477 13.0089 16.924C13.0089 16.371 12.5619 15.924 12.0089 15.924H11.9999C11.4469 15.924 11.0039 16.371 11.0039 16.924Z" fill="black"/>
<path fill-rule="evenodd" clip-rule="evenodd" d="M12 22C6.487 22 2 17.514 2 12C2 6.486 6.487 2 12 2C17.513 2 22 6.486 22 12C22 17.514 17.514 22 12 22ZM12 4C7.589 4 4 7.589 4 12C4 16.411 7.589 20 12 20C16.411 20 20 16.411 20 12C20 7.589 16.412 4 12 4Z" fill="black"/>
</svg>
