<svg width="24" height="24" viewBox="0 0 24 24" fill="none" xmlns="http://www.w3.org/2000/svg">
<path d="M12 13C11.7348 13 11.4804 12.8946 11.2929 12.7071C11.1054 12.5196 11 12.2652 11 12V8C11 7.73478 11.1054 7.48043 11.2929 7.29289C11.4804 7.10536 11.7348 7 12 7C12.2652 7 12.5196 7.10536 12.7071 7.29289C12.8946 7.48043 13 7.73478 13 8V12C13 12.2652 12.8946 12.5196 12.7071 12.7071C12.5196 12.8946 12.2652 13 12 13Z" fill="black"/>
<path d="M11.2929 16.7071C11.4804 16.8946 11.7348 17 12 17C12.2652 17 12.5196 16.8946 12.7071 16.7071C12.8946 16.5196 13 16.2652 13 16C13 15.7348 12.8946 15.4804 12.7071 15.2929C12.5196 15.1054 12.2652 15 12 15C11.7348 15 11.4804 15.1054 11.2929 15.2929C11.1054 15.4804 11 15.7348 11 16C11 16.2652 11.1054 16.5196 11.2929 16.7071Z" fill="black"/>
<path fill-rule="evenodd" clip-rule="evenodd" d="M8.27 22C8.00766 21.9989 7.75626 21.8947 7.57 21.71L2.29 16.43C2.10526 16.2437 2.0011 15.9923 2 15.73V8.27C2.0011 8.00766 2.10526 7.75626 2.29 7.57L7.57 2.29C7.75626 2.10526 8.00766 2.0011 8.27 2H15.73C15.9923 2.0011 16.2437 2.10526 16.43 2.29L21.71 7.57C21.8947 7.75626 21.9989 8.00766 22 8.27V15.73C21.9989 15.9923 21.8947 16.2437 21.71 16.43L16.43 21.71C16.2437 21.8947 15.9923 21.9989 15.73 22H8.27ZM8.73 20H15.35L20 15.31V8.69L15.31 4H8.69L4 8.69V15.31L8.73 20Z" fill="black"/>
</svg>
