<svg width="24" height="24" viewBox="0 0 24 24" fill="none" xmlns="http://www.w3.org/2000/svg">
<g clip-path="url(#clip0_65_7127)">
<mask id="mask0_65_7127" style="mask-type:luminance" maskUnits="userSpaceOnUse" x="0" y="0" width="24" height="24">
<path d="M24 0H0V24H24V0Z" fill="white"/>
</mask>
<g mask="url(#mask0_65_7127)">
<path d="M12 6.00008C15.79 6.00008 19.17 8.13008 20.82 11.5001C20.23 12.7201 19.4 13.7701 18.41 14.6201L19.82 16.0301C21.21 14.8001 22.31 13.2601 23 11.5001C21.27 7.11008 17 4.00008 12 4.00008C10.73 4.00008 9.51 4.20008 8.36 4.57008L10.01 6.22008C10.66 6.09008 11.32 6.00008 12 6.00008ZM10.93 7.14008L13 9.21008C13.57 9.46008 14.03 9.92007 14.28 10.4901L16.35 12.5601C16.43 12.2201 16.49 11.8601 16.49 11.4901C16.5 9.01008 14.48 7.00008 12 7.00008C11.63 7.00008 11.28 7.05008 10.93 7.14008ZM2.715 4.57508L4.69 6.55008C3.06 7.83008 1.77 9.53008 1 11.5001C2.73 15.8901 7 19.0001 12 19.0001C13.52 19.0001 14.98 18.7101 16.32 18.1801L19.035 20.8951C19.424 21.2841 20.056 21.2841 20.445 20.8951C20.834 20.5061 20.834 19.8741 20.445 19.4851L4.13 3.16008C3.738 2.76808 3.103 2.76908 2.713 3.16208C2.325 3.55308 2.326 4.18607 2.715 4.57508ZM9.51 11.3701L12.12 13.9801C12.08 13.9901 12.04 14.0001 12 14.0001C10.62 14.0001 9.5 12.8801 9.5 11.5001C9.5 11.4501 9.51 11.4201 9.51 11.3701ZM6.11 7.97008L7.86 9.72008C7.63 10.2701 7.5 10.8701 7.5 11.5001C7.5 13.9801 9.52 16.0001 12 16.0001C12.63 16.0001 13.23 15.8701 13.77 15.6401L14.75 16.6201C13.87 16.8601 12.95 17.0001 12 17.0001C8.21 17.0001 4.83 14.8701 3.18 11.5001C3.88 10.0701 4.9 8.89008 6.11 7.97008Z" fill="black"/>
</g>
</g>
<defs>
<clipPath id="clip0_65_7127">
<rect width="24" height="24" fill="white"/>
</clipPath>
</defs>
</svg>
