<svg width="24" height="24" viewBox="0 0 24 24" fill="none" xmlns="http://www.w3.org/2000/svg">
<mask id="mask0_4565_6678" style="mask-type:alpha" maskUnits="userSpaceOnUse" x="0" y="0" width="24" height="24">
<rect width="24" height="24" fill="#D9D9D9"/>
</mask>
<g mask="url(#mask0_4565_6678)">
<path d="M10.2543 18.4098C9.51592 18.4098 8.88967 18.1527 8.3755 17.6385C7.86133 17.1245 7.60425 16.4983 7.60425 15.7598V15.0468C6.62608 14.3403 5.86742 13.4599 5.32825 12.4055C4.78908 11.3512 4.5195 10.2208 4.5195 9.01428C4.5195 6.93228 5.24508 5.1627 6.69625 3.70553C8.14742 2.2482 9.91467 1.51953 11.998 1.51953C14.0812 1.51953 15.8491 2.24536 17.3018 3.69703C18.7543 5.14853 19.4805 6.9162 19.4805 9.00003C19.4805 10.2047 19.2109 11.3352 18.6718 12.3915C18.1326 13.4479 17.3739 14.3329 16.3958 15.0468V15.7598C16.3958 16.4983 16.1387 17.1245 15.6245 17.6385C15.1103 18.1527 14.4841 18.4098 13.7458 18.4098H10.2543ZM10.2403 15.774H13.7598V13.6718L14.7653 12.9728C15.4203 12.5249 15.9306 11.9498 16.2963 11.2473C16.6618 10.5448 16.8445 9.79786 16.8445 9.00653C16.8445 7.66603 16.3712 6.52236 15.4245 5.57553C14.4777 4.62886 13.3362 4.15553 12 4.15553C10.6638 4.15553 9.52233 4.62786 8.5755 5.57253C7.62883 6.5172 7.1555 7.6597 7.1555 9.00003C7.1555 9.79786 7.34067 10.5451 7.711 11.2418C8.08117 11.9386 8.59383 12.5156 9.249 12.9728L10.2403 13.6718V15.774ZM9.9435 22.4805C9.572 22.4805 9.26067 22.3542 9.0095 22.1015C8.75817 21.849 8.6325 21.536 8.6325 21.1625V19.8445H15.3675V21.1695C15.3675 21.541 15.2418 21.8524 14.9905 22.1035C14.7393 22.3549 14.428 22.4805 14.0565 22.4805H9.9435Z" fill="white"/>
</g>
</svg>
