<svg width="24" height="24" viewBox="0 0 24 24" fill="none" xmlns="http://www.w3.org/2000/svg">
<path d="M7.52786 3.05573C8.91642 2.36145 10.4475 2 12 2C13.8412 2.00167 15.6461 2.51162 17.216 3.47363C18.7858 4.43565 20.0596 5.81239 20.8969 7.45214C21.7343 9.09188 22.1026 10.931 21.9615 12.7667C21.8203 14.6024 21.1751 16.3636 20.0969 17.856C19.0187 19.3485 17.5494 20.5143 15.8509 21.225C14.1525 21.9357 12.2908 22.1637 10.471 21.8838C8.65122 21.604 6.94403 20.8272 5.53757 19.639C4.1311 18.4508 3.07997 16.8974 2.5 15.15C2.45611 15.0174 2.44046 14.8772 2.45407 14.7382C2.46767 14.5992 2.51023 14.4647 2.579 14.3432C2.64776 14.2216 2.74122 14.1159 2.85334 14.0326C2.96546 13.9494 3.09377 13.8906 3.23 13.86C3.4696 13.8041 3.72141 13.8384 3.93726 13.9565C4.15312 14.0746 4.31787 14.2681 4.4 14.5C4.96886 16.2279 6.1096 17.7103 7.63412 18.7028C9.15863 19.6952 10.9759 20.1385 12.7861 19.9595C14.5964 19.7804 16.2916 18.9898 17.5922 17.7179C18.8928 16.446 19.721 14.7689 19.9404 12.9631C20.1598 11.1572 19.7572 9.33056 18.7989 7.78429C17.8407 6.23801 16.3841 5.06448 14.6694 4.45722C12.9546 3.84996 11.0841 3.84524 9.36631 4.44383C7.64851 5.04242 6.18601 6.20858 5.22 7.75H7.22C7.48522 7.75 7.73957 7.85536 7.92711 8.04289C8.11464 8.23043 8.22 8.48478 8.22 8.75C8.22 9.01522 8.11464 9.26957 7.92711 9.45711C7.73957 9.64464 7.48522 9.75 7.22 9.75H3C2.73478 9.75 2.48043 9.64464 2.29289 9.45711C2.10536 9.26957 2 9.01522 2 8.75V4.5C2 4.23478 2.10536 3.98043 2.29289 3.79289C2.48043 3.60536 2.73478 3.5 3 3.5C3.26522 3.5 3.51957 3.60536 3.70711 3.79289C3.89464 3.98043 4 4.23478 4 4.5V6C4.93147 4.75804 6.13931 3.75001 7.52786 3.05573Z" fill="black"/>
<path d="M11.2929 6.29289C11.4804 6.10536 11.7348 6 12 6C12.2652 6 12.5196 6.10536 12.7071 6.29289C12.8946 6.48043 13 6.73478 13 7V11.37L15.77 12.77C15.9686 12.8717 16.1275 13.0368 16.2214 13.2392C16.3153 13.4416 16.3388 13.6696 16.2882 13.8869C16.2376 14.1042 16.1158 14.2983 15.9422 14.4384C15.7686 14.5785 15.5531 14.6565 15.33 14.66C15.1743 14.6622 15.0202 14.6279 14.88 14.56L11.55 12.89C11.3851 12.8069 11.2464 12.6798 11.1493 12.5227C11.0522 12.3656 11.0006 12.1847 11 12V7C11 6.73478 11.1054 6.48043 11.2929 6.29289Z" fill="black"/>
</svg>
