<svg width="24" height="24" viewBox="0 0 24 24" fill="none" xmlns="http://www.w3.org/2000/svg">
<path d="M12 5.395L19 11.806V19H15.8V16.238C15.8 14.731 14.574 13.505 13.067 13.505H10.92C9.42 13.505 8.2 14.725 8.2 16.225V19H5V11.805L12 5.395ZM12 3C11.784 3 11.568 3.078 11.398 3.234L3.409 10.55C3.148 10.789 3 11.126 3 11.48V20.099C3 20.594 3.405 20.999 3.9 20.999H9.284C9.788 20.999 10.2 20.587 10.2 20.083V16.224C10.2 15.826 10.522 15.504 10.92 15.504H13.067C13.47 15.504 13.8 15.834 13.8 16.237V20.099C13.8 20.596 14.203 20.999 14.7 20.999H20.084C20.588 20.999 21 20.587 21 20.083V11.48C21 11.127 20.852 10.789 20.591 10.551L12.602 3.234C12.432 3.078 12.216 3 12 3Z" fill="white"/>
</svg>
