<svg width="24" height="12" viewBox="0 0 24 12" fill="none" xmlns="http://www.w3.org/2000/svg">
<path d="M16 5.99902C16 7.09902 16.9 7.99902 18 7.99902C19.1 7.99902 20 7.09902 20 5.99902C20 4.89902 19.1 3.99902 18 3.99902C16.9 3.99902 16 4.89902 16 5.99902ZM14 5.99902C14 4.89902 13.1 3.99902 12 3.99902C10.9 3.99902 10 4.89902 10 5.99902C10 7.09902 10.9 7.99902 12 7.99902C13.1 7.99902 14 7.09902 14 5.99902ZM8 5.99902C8 4.89902 7.1 3.99902 6 3.99902C4.9 3.99902 4 4.89902 4 5.99902C4 7.09902 4.9 7.99902 6 7.99902C7.1 7.99902 8 7.09902 8 5.99902Z" fill="black"/>
</svg>
