<svg width="24" height="24" viewBox="0 0 24 24" fill="none" xmlns="http://www.w3.org/2000/svg">
<path fill-rule="evenodd" clip-rule="evenodd" d="M17.7069 17.7069C17.316 18.0978 16.6838 18.0976 16.2928 17.7069L11.5409 12.9539C11.0159 12.4269 11.0159 11.5708 11.5399 11.0448L16.2928 6.29281C16.4878 6.09781 16.7438 5.99984 16.9998 5.99984C17.2558 5.99991 17.5119 6.09788 17.7069 6.29281C18.0976 6.68383 18.0978 7.31596 17.7069 7.70687L13.4139 11.9989L17.7069 16.2928C18.0976 16.6838 18.0978 17.317 17.7069 17.7069ZM10.7069 17.7069C10.316 18.0978 9.68383 18.0976 9.29281 17.7069L4.54086 12.9539C4.01586 12.4269 4.01588 11.5708 4.53988 11.0448L9.29281 6.29281C9.48781 6.09781 9.74384 5.99984 9.99984 5.99984C10.2558 5.99991 10.5119 6.09788 10.7069 6.29281C11.0976 6.68383 11.0978 7.31596 10.7069 7.70688L6.41391 11.9989L10.7069 16.2928C11.0976 16.6838 11.0978 17.317 10.7069 17.7069Z" fill="black"/>
</svg>
