<svg width="24" height="24" viewBox="0 0 24 24" fill="none" xmlns="http://www.w3.org/2000/svg">
<path d="M21.5399 14.74C21.5499 14.88 21.5299 15.02 21.4899 15.15C20.9099 16.9 19.8599 18.45 18.4499 19.64C17.0499 20.83 15.3399 21.6 13.5199 21.88C11.6999 22.16 9.83993 21.94 8.13993 21.23C6.43993 20.52 4.96993 19.35 3.88993 17.86C2.81993 16.36 2.16993 14.6 2.02993 12.77C1.88993 10.93 2.25993 9.09 3.08993 7.45C3.92993 5.81 5.19993 4.44 6.76993 3.47C8.33993 2.51 10.1499 2 11.9899 2C13.5399 2 15.0699 2.36 16.4599 3.06C17.0889 3.371 17.6809 3.746 18.2229 4.178C18.6929 4.553 18.7329 5.256 18.3079 5.681C17.9519 6.037 17.3829 6.079 16.9919 5.762C16.2899 5.193 15.4889 4.742 14.6199 4.439C12.9099 3.849 11.0399 3.849 9.31993 4.459C7.60993 5.07 6.14993 6.24 5.18993 7.79C4.22993 9.33 3.82993 11.16 4.04993 12.96C4.26993 14.77 5.09993 16.45 6.39993 17.72C7.69993 18.99 9.38993 19.78 11.1999 19.96C13.0099 20.14 14.8299 19.7 16.3599 18.7C17.8799 17.71 19.0199 16.23 19.5899 14.5C19.6699 14.27 19.8399 14.08 20.0499 13.96C20.2699 13.84 20.5199 13.81 20.7599 13.86C20.8999 13.89 21.0299 13.95 21.1399 14.03C21.2499 14.12 21.3399 14.22 21.4099 14.34C21.4799 14.47 21.5199 14.6 21.5399 14.74Z" fill="black"/>
</svg>
