<svg width="24" height="24" viewBox="0 0 24 24" fill="none" xmlns="http://www.w3.org/2000/svg">
<path fill-rule="evenodd" clip-rule="evenodd" d="M12 21.499C17.2467 21.499 21.5 17.2457 21.5 11.999C21.5 6.75232 17.2467 2.49902 12 2.49902C6.75329 2.49902 2.5 6.75232 2.5 11.999C2.5 17.2457 6.75329 21.499 12 21.499ZM12 22.999C18.0751 22.999 23 18.0742 23 11.999C23 5.92389 18.0751 0.999023 12 0.999023C5.92487 0.999023 1 5.92389 1 11.999C1 18.0742 5.92487 22.999 12 22.999Z" fill="black"/>
<path fill-rule="evenodd" clip-rule="evenodd" d="M7.69924 14.6017L10.3032 11.9977L7.69924 9.393C7.43749 9.13125 7.43749 8.70825 7.69924 8.4465C7.96099 8.18475 8.38399 8.18475 8.64574 8.4465L11.726 11.5267C11.9877 11.7885 11.9877 12.2115 11.726 12.4732L8.64574 15.5535C8.38399 15.8152 7.96099 15.8152 7.69924 15.5535C7.44424 15.2925 7.43749 14.8635 7.69924 14.6017ZM15.5562 11.9977L12.9522 14.6017C12.6904 14.8635 12.6972 15.2925 12.9522 15.5535C13.2139 15.8152 13.6369 15.8152 13.8987 15.5535L16.9789 12.4732C17.2407 12.2115 17.2407 11.7885 16.9789 11.5267L13.8987 8.4465C13.6369 8.18475 13.2139 8.18475 12.9522 8.4465C12.6904 8.70825 12.6904 9.13125 12.9522 9.393L15.5562 11.9977Z" fill="black"/>
</svg>
