<svg width="24" height="24" viewBox="0 0 24 24" fill="none" xmlns="http://www.w3.org/2000/svg">
<path d="M16.166 1.50881C16.9892 1.60045 17.5826 2.34281 17.4912 3.16604L17.0098 7.50002H20C20.8284 7.50002 21.5 8.17161 21.5 9.00002C21.5 9.82845 20.8284 10.5 20 10.5H16.6768L16.3428 13.5H20C20.8284 13.5 21.5 14.1716 21.5 15C21.5 15.8284 20.8284 16.5 20 16.5H16.0098L15.4912 21.166C15.3996 21.9892 14.6572 22.5827 13.834 22.4912C13.0108 22.3996 12.4173 21.6572 12.5088 20.834L12.9902 16.5H10.0098L9.49121 21.166C9.39957 21.9892 8.65724 22.5827 7.83398 22.4912C7.01081 22.3996 6.41732 21.6572 6.50879 20.834L6.99023 16.5H4C3.17157 16.5 2.5 15.8284 2.5 15C2.50003 14.1716 3.17159 13.5 4 13.5H7.32324L7.65723 10.5H4C3.17157 10.5 2.5 9.82845 2.5 9.00002C2.50002 8.17161 3.17159 7.50002 4 7.50002H7.99023L8.50879 2.834C8.60046 2.01086 9.3428 1.41736 10.166 1.50881C10.9892 1.60045 11.5826 2.34281 11.4912 3.16604L11.0098 7.50002H13.9902L14.5088 2.834C14.6005 2.01086 15.3428 1.41736 16.166 1.50881ZM10.6768 10.5L10.3428 13.5H13.3232L13.6572 10.5H10.6768Z" fill="white"/>
</svg>
