<svg width="20" height="20" viewBox="0 0 20 20" fill="none" xmlns="http://www.w3.org/2000/svg">
<path d="M4.41667 17.5H7.25C7.61833 17.5 7.91667 17.2017 7.91667 16.8333V3.16667C7.91667 2.79833 7.61833 2.5 7.25 2.5H4.41667C4.04833 2.5 3.75 2.79833 3.75 3.16667V16.8333C3.75 17.2017 4.04833 17.5 4.41667 17.5Z" fill="white"/>
<path d="M12.75 17.5H15.5833C15.9517 17.5 16.25 17.2017 16.25 16.8333V3.16667C16.25 2.79833 15.9517 2.5 15.5833 2.5H12.75C12.3817 2.5 12.0833 2.79833 12.0833 3.16667V16.8333C12.0833 17.2017 12.3817 17.5 12.75 17.5Z" fill="white"/>
</svg>
