<svg width="48" height="48" viewBox="0 0 48 48" fill="none" xmlns="http://www.w3.org/2000/svg">
<path d="M22.0177 0L24.0003 23.9966L25.9829 0H22.0177Z" fill="url(#paint0_radial_4571_978)"/>
<path d="M13.5055 0L24.0003 23.9966L17.9389 0H13.5055Z" fill="url(#paint1_radial_4571_978)"/>
<path d="M30.4724 0L24.0003 23.9966L34.9565 0H30.4724Z" fill="url(#paint2_radial_4571_978)"/>
<path d="M48 37.3193V32.5376L24.0003 23.9966L48 37.3193Z" fill="url(#paint3_radial_4571_978)"/>
<path d="M24.0003 23.9966L48 28.2874V24.2858L24.0003 23.9966Z" fill="url(#paint4_radial_4571_978)"/>
<path d="M48 16.1019L24.0003 23.9966L48 20.2974V16.1019Z" fill="url(#paint5_radial_4571_978)"/>
<path d="M48 5.84064L24.0003 23.9966L48 11.417V5.84064Z" fill="url(#paint6_radial_4571_978)"/>
<path d="M40.1821 0L24.0003 23.9966L46.724 0H40.1821Z" fill="url(#paint7_radial_4571_978)"/>
<path d="M8.09434 48H13.2709L24.0003 23.9966L8.09434 48Z" fill="url(#paint8_radial_4571_978)"/>
<path d="M17.7338 48H21.8219L24.0003 23.9966L17.7338 48Z" fill="url(#paint9_radial_4571_978)"/>
<path d="M25.7915 48H29.8577L24.0003 23.9966L25.7915 48Z" fill="url(#paint10_radial_4571_978)"/>
<path d="M34.2715 48H39.3585L24.0003 23.9966L34.2715 48Z" fill="url(#paint11_radial_4571_978)"/>
<path d="M48 43.0789L24.0003 23.9966L45.6628 48H48V43.0789Z" fill="url(#paint12_radial_4571_978)"/>
<path d="M8.37197 0H1.99517L24.0003 23.9966L8.37197 0Z" fill="url(#paint13_radial_4571_978)"/>
<path d="M0 5.22807V10.9222L24.0003 23.9966L0 5.22807Z" fill="url(#paint14_radial_4571_978)"/>
<path d="M0 15.6732V19.9024L24.0003 23.9966L0 15.6732Z" fill="url(#paint15_radial_4571_978)"/>
<path d="M0 23.9012V27.8917L24.0003 23.9966L0 23.9012Z" fill="url(#paint16_radial_4571_978)"/>
<path d="M0 32.1069V36.8209L24.0003 23.9966L0 32.1069Z" fill="url(#paint17_radial_4571_978)"/>
<path d="M0 42.4596V48H1.6296L24.0003 23.9966L0 42.4596Z" fill="url(#paint18_radial_4571_978)"/>
<defs>
<radialGradient id="paint0_radial_4571_978" cx="0" cy="0" r="1" gradientUnits="userSpaceOnUse" gradientTransform="translate(24 24) rotate(90) scale(21.6316)">
<stop stop-color="#3E9E3E" stop-opacity="0.33"/>
<stop offset="1" stop-color="#3E9E3E" stop-opacity="0"/>
</radialGradient>
<radialGradient id="paint1_radial_4571_978" cx="0" cy="0" r="1" gradientUnits="userSpaceOnUse" gradientTransform="translate(24 24) rotate(90) scale(21.6316)">
<stop stop-color="#3E9E3E" stop-opacity="0.33"/>
<stop offset="1" stop-color="#3E9E3E" stop-opacity="0"/>
</radialGradient>
<radialGradient id="paint2_radial_4571_978" cx="0" cy="0" r="1" gradientUnits="userSpaceOnUse" gradientTransform="translate(24 24) rotate(90) scale(21.6316)">
<stop stop-color="#3E9E3E" stop-opacity="0.33"/>
<stop offset="1" stop-color="#3E9E3E" stop-opacity="0"/>
</radialGradient>
<radialGradient id="paint3_radial_4571_978" cx="0" cy="0" r="1" gradientUnits="userSpaceOnUse" gradientTransform="translate(24 24) rotate(90) scale(21.6316)">
<stop stop-color="#3E9E3E" stop-opacity="0.33"/>
<stop offset="1" stop-color="#3E9E3E" stop-opacity="0"/>
</radialGradient>
<radialGradient id="paint4_radial_4571_978" cx="0" cy="0" r="1" gradientUnits="userSpaceOnUse" gradientTransform="translate(24 24) rotate(90) scale(21.6316)">
<stop stop-color="#3E9E3E" stop-opacity="0.33"/>
<stop offset="1" stop-color="#3E9E3E" stop-opacity="0"/>
</radialGradient>
<radialGradient id="paint5_radial_4571_978" cx="0" cy="0" r="1" gradientUnits="userSpaceOnUse" gradientTransform="translate(24 24) rotate(90) scale(21.6316)">
<stop stop-color="#3E9E3E" stop-opacity="0.33"/>
<stop offset="1" stop-color="#3E9E3E" stop-opacity="0"/>
</radialGradient>
<radialGradient id="paint6_radial_4571_978" cx="0" cy="0" r="1" gradientUnits="userSpaceOnUse" gradientTransform="translate(24 24) rotate(90) scale(21.6316)">
<stop stop-color="#3E9E3E" stop-opacity="0.33"/>
<stop offset="1" stop-color="#3E9E3E" stop-opacity="0"/>
</radialGradient>
<radialGradient id="paint7_radial_4571_978" cx="0" cy="0" r="1" gradientUnits="userSpaceOnUse" gradientTransform="translate(24 24) rotate(90) scale(21.6316)">
<stop stop-color="#3E9E3E" stop-opacity="0.33"/>
<stop offset="1" stop-color="#3E9E3E" stop-opacity="0"/>
</radialGradient>
<radialGradient id="paint8_radial_4571_978" cx="0" cy="0" r="1" gradientUnits="userSpaceOnUse" gradientTransform="translate(24 24) rotate(90) scale(21.6316)">
<stop stop-color="#3E9E3E" stop-opacity="0.33"/>
<stop offset="1" stop-color="#3E9E3E" stop-opacity="0"/>
</radialGradient>
<radialGradient id="paint9_radial_4571_978" cx="0" cy="0" r="1" gradientUnits="userSpaceOnUse" gradientTransform="translate(24 24) rotate(90) scale(21.6316)">
<stop stop-color="#3E9E3E" stop-opacity="0.33"/>
<stop offset="1" stop-color="#3E9E3E" stop-opacity="0"/>
</radialGradient>
<radialGradient id="paint10_radial_4571_978" cx="0" cy="0" r="1" gradientUnits="userSpaceOnUse" gradientTransform="translate(24 24) rotate(90) scale(21.6316)">
<stop stop-color="#3E9E3E" stop-opacity="0.33"/>
<stop offset="1" stop-color="#3E9E3E" stop-opacity="0"/>
</radialGradient>
<radialGradient id="paint11_radial_4571_978" cx="0" cy="0" r="1" gradientUnits="userSpaceOnUse" gradientTransform="translate(24 24) rotate(90) scale(21.6316)">
<stop stop-color="#3E9E3E" stop-opacity="0.33"/>
<stop offset="1" stop-color="#3E9E3E" stop-opacity="0"/>
</radialGradient>
<radialGradient id="paint12_radial_4571_978" cx="0" cy="0" r="1" gradientUnits="userSpaceOnUse" gradientTransform="translate(24 24) rotate(90) scale(21.6316)">
<stop stop-color="#3E9E3E" stop-opacity="0.33"/>
<stop offset="1" stop-color="#3E9E3E" stop-opacity="0"/>
</radialGradient>
<radialGradient id="paint13_radial_4571_978" cx="0" cy="0" r="1" gradientUnits="userSpaceOnUse" gradientTransform="translate(24 24) rotate(90) scale(21.6316)">
<stop stop-color="#3E9E3E" stop-opacity="0.33"/>
<stop offset="1" stop-color="#3E9E3E" stop-opacity="0"/>
</radialGradient>
<radialGradient id="paint14_radial_4571_978" cx="0" cy="0" r="1" gradientUnits="userSpaceOnUse" gradientTransform="translate(24 24) rotate(90) scale(21.6316)">
<stop stop-color="#3E9E3E" stop-opacity="0.33"/>
<stop offset="1" stop-color="#3E9E3E" stop-opacity="0"/>
</radialGradient>
<radialGradient id="paint15_radial_4571_978" cx="0" cy="0" r="1" gradientUnits="userSpaceOnUse" gradientTransform="translate(24 24) rotate(90) scale(21.6316)">
<stop stop-color="#3E9E3E" stop-opacity="0.33"/>
<stop offset="1" stop-color="#3E9E3E" stop-opacity="0"/>
</radialGradient>
<radialGradient id="paint16_radial_4571_978" cx="0" cy="0" r="1" gradientUnits="userSpaceOnUse" gradientTransform="translate(24 24) rotate(90) scale(21.6316)">
<stop stop-color="#3E9E3E" stop-opacity="0.33"/>
<stop offset="1" stop-color="#3E9E3E" stop-opacity="0"/>
</radialGradient>
<radialGradient id="paint17_radial_4571_978" cx="0" cy="0" r="1" gradientUnits="userSpaceOnUse" gradientTransform="translate(24 24) rotate(90) scale(21.6316)">
<stop stop-color="#3E9E3E" stop-opacity="0.33"/>
<stop offset="1" stop-color="#3E9E3E" stop-opacity="0"/>
</radialGradient>
<radialGradient id="paint18_radial_4571_978" cx="0" cy="0" r="1" gradientUnits="userSpaceOnUse" gradientTransform="translate(24 24) rotate(90) scale(21.6316)">
<stop stop-color="#3E9E3E" stop-opacity="0.33"/>
<stop offset="1" stop-color="#3E9E3E" stop-opacity="0"/>
</radialGradient>
</defs>
</svg>
