<svg width="24" height="24" viewBox="0 0 24 24" fill="none" xmlns="http://www.w3.org/2000/svg">
<path d="M11.9907 2C13.5432 2 15.0743 2.36145 16.4629 3.05573C17.8514 3.75001 19.0593 4.75804 19.9907 6V4.5C19.9907 4.23478 20.0961 3.98043 20.2836 3.79289C20.4712 3.60536 20.7255 3.5 20.9907 3.5C21.2559 3.5 21.5103 3.60536 21.6978 3.79289C21.8854 3.98043 21.9907 4.23478 21.9907 4.5V8.75C21.9907 9.01522 21.8854 9.26957 21.6978 9.45711C21.5103 9.64464 21.2559 9.75 20.9907 9.75H16.7707C16.5055 9.75 16.2512 9.64464 16.0636 9.45711C15.8761 9.26957 15.7707 9.01522 15.7707 8.75C15.7707 8.48478 15.8761 8.23043 16.0636 8.04289C16.2512 7.85536 16.5055 7.75 16.7707 7.75H18.7707C17.8047 6.20858 16.3422 5.04242 14.6244 4.44383C12.9066 3.84524 11.0361 3.84996 9.32135 4.45722C7.6066 5.06448 6.15001 6.23801 5.19179 7.78429C4.23357 9.33056 3.83095 11.1572 4.05032 12.9631C4.2697 14.7689 5.09797 16.446 6.39854 17.7179C7.69911 18.9898 9.39431 19.7804 11.2046 19.9595C13.0149 20.1385 14.8321 19.6952 16.3566 18.7028C17.8811 17.7103 19.0219 16.2279 19.5907 14.5C19.6729 14.2681 19.8376 14.0746 20.0535 13.9565C20.2693 13.8384 20.5211 13.8041 20.7607 13.86C20.897 13.8906 21.0253 13.9494 21.1374 14.0326C21.2495 14.1159 21.343 14.2216 21.4117 14.3432C21.4805 14.4647 21.523 14.5992 21.5367 14.7382C21.5503 14.8772 21.5346 15.0174 21.4907 15.15C20.9108 16.8974 19.8596 18.4508 18.4532 19.639C17.0467 20.8272 15.3395 21.604 13.5197 21.8838C11.7 22.1637 9.83825 21.9357 8.13978 21.225C6.44131 20.5143 4.97202 19.3485 3.89383 17.856C2.81564 16.3636 2.17041 14.6024 2.02924 12.7667C1.88808 10.931 2.25646 9.09188 3.0938 7.45214C3.93114 5.81239 5.20491 4.43565 6.77476 3.47363C8.3446 2.51162 10.1496 2.00167 11.9907 2Z" fill="black"/>
</svg>
