<svg width="24" height="24" viewBox="0 0 24 24" fill="none" xmlns="http://www.w3.org/2000/svg">
<path d="M21 6.5H19.049C19.21 6.115 19.3 5.693 19.3 5.25C19.3 3.458 17.842 2 16.05 2C14.014 2 12.753 3.369 12 4.717C11.247 3.369 9.986 2 7.95 2C6.158 2 4.7 3.458 4.7 5.25C4.7 5.693 4.79 6.115 4.952 6.5H3C2.447 6.5 2 6.948 2 7.5V12C2 12.552 2.447 13 3 13H3.8V21C3.8 21.553 4.247 22 4.8 22H19.2C19.753 22 20.2 21.553 20.2 21V13H21C21.553 13 22 12.552 22 12V7.5C22 6.948 21.552 6.5 21 6.5ZM20 11H13V8.5H16.051H20V11ZM16.05 4C16.739 4 17.3 4.561 17.3 5.25C17.3 5.939 16.74 6.5 16.05 6.5H13.356C13.788 5.42 14.626 4 16.05 4ZM6.7 5.25C6.7 4.561 7.26 4 7.95 4C9.375 4 10.213 5.42 10.643 6.5H7.95C7.26 6.5 6.7 5.939 6.7 5.25ZM4 8.5H7.95H11V11H4V8.5ZM5.8 13H11V20H5.8V13ZM18.2 20H13V13H18.2V20Z" fill="black"/>
</svg>
