<svg width="24" height="24" viewBox="0 0 24 24" fill="none" xmlns="http://www.w3.org/2000/svg">
<path fill-rule="evenodd" clip-rule="evenodd" d="M6.29312 6.29288C6.68404 5.90196 7.31617 5.90213 7.70719 6.29288L12.4591 11.0458C12.9841 11.5728 12.9841 12.429 12.4601 12.955L7.70719 17.7069C7.51219 17.9019 7.25616 17.9999 7.00016 17.9999C6.74424 17.9998 6.48806 17.9019 6.29312 17.7069C5.90238 17.3159 5.90221 16.6838 6.29312 16.2929L10.5861 12.0009L6.29312 7.70694C5.90237 7.31592 5.90221 6.6828 6.29312 6.29288ZM13.2931 6.29288C13.684 5.90196 14.3162 5.90213 14.7072 6.29288L19.4591 11.0458C19.9841 11.5728 19.9841 12.429 19.4601 12.955L14.7072 17.7069C14.5122 17.9019 14.2562 17.9999 14.0002 17.9999C13.7442 17.9998 13.4881 17.9019 13.2931 17.7069C12.9024 17.3159 12.9022 16.6838 13.2931 16.2929L17.5861 12.0009L13.2931 7.70694C12.9024 7.31592 12.9022 6.6828 13.2931 6.29288Z" fill="black"/>
</svg>
