<svg width="24" height="24" viewBox="0 0 24 24" fill="none" xmlns="http://www.w3.org/2000/svg">
<g clip-path="url(#clip0_52_746)">
<path fill-rule="evenodd" clip-rule="evenodd" d="M1.69984 14.9793C1.80545 14.9652 1.91329 14.9724 2.01625 14.9998C2.11894 15.0273 2.21507 15.0748 2.29945 15.1395C2.38275 15.2051 2.45303 15.287 2.50453 15.3797C2.55588 15.4723 2.58853 15.5743 2.60023 15.6795C2.74093 16.9652 3.26719 18.1779 4.11 19.159C4.95285 20.1353 6.07216 20.8327 7.31996 21.159V19.9393C7.31695 19.86 7.34202 19.7824 7.39027 19.7195C7.4306 19.6498 7.49411 19.5962 7.56996 19.5691C7.64513 19.5493 7.72426 19.5494 7.79945 19.5691C7.87381 19.5895 7.94258 19.6276 7.99965 19.6795L10.5895 22.1893C10.6419 22.2406 10.6775 22.3074 10.6901 22.3797C10.71 22.4516 10.71 22.5275 10.6901 22.5994C10.6695 22.6675 10.6272 22.727 10.57 22.7693C10.5187 22.8217 10.4517 22.8563 10.3795 22.8689C9.92432 22.9527 9.46248 22.9971 8.99965 22.9998C7.02779 23.0165 5.11922 22.304 3.64027 20.9998C2.15508 19.6803 1.21339 17.8549 0.999646 15.8797C0.986603 15.7751 0.994893 15.6685 1.02406 15.5672C1.05323 15.4658 1.10295 15.3715 1.16957 15.2898C1.2987 15.1209 1.48933 15.0091 1.69984 14.9793ZM9.87953 2.21953C10.4091 2.22176 10.9163 2.43384 11.2897 2.80937L21.1901 12.7098C21.3756 12.8971 21.5245 13.1173 21.6295 13.3592C21.7285 13.6001 21.7799 13.8584 21.7799 14.1189C21.7812 14.3829 21.7298 14.6452 21.6295 14.8895C21.5272 15.133 21.3781 15.3544 21.1901 15.5398L15.5397 21.1893C15.3522 21.3749 15.1322 21.5246 14.8903 21.6297C14.646 21.73 14.3838 21.7804 14.1198 21.7791C13.5902 21.7769 13.0829 21.5648 12.7096 21.1893L2.81019 11.2898C2.62453 11.1023 2.47489 10.8814 2.36976 10.6395C2.26866 10.3993 2.22125 10.1401 2.23012 9.87969C2.21967 9.61166 2.27043 9.34445 2.37953 9.09941C2.47999 8.86021 2.6267 8.64318 2.81019 8.45976L8.45961 2.80937C8.64508 2.62121 8.86639 2.47123 9.11 2.36894C9.35458 2.27044 9.61586 2.22002 9.87953 2.21953ZM4.23012 9.83965L12.6803 18.2898L18.3297 12.6297L9.87953 4.17949L4.23012 9.83965ZM16.8952 15.8436C16.6164 15.8436 16.3484 15.9533 16.15 16.1492C16.0469 16.2429 15.9642 16.3578 15.9078 16.4852C15.8515 16.6125 15.8229 16.7502 15.8229 16.8895C15.8229 17.0286 15.8515 17.1663 15.9078 17.2937C15.9642 17.4211 16.0469 17.536 16.15 17.6297C16.3484 17.8255 16.6164 17.9353 16.8952 17.9353C17.1739 17.9353 17.442 17.8256 17.6403 17.6297C17.7433 17.536 17.8251 17.4211 17.8815 17.2937C17.9378 17.1663 17.9674 17.0287 17.9674 16.8895C17.9674 16.7501 17.9378 16.6125 17.8815 16.4852C17.8251 16.3578 17.7433 16.2429 17.6403 16.1492C17.442 15.9533 17.1739 15.8436 16.8952 15.8436ZM14.9996 0.999802C16.9717 0.982998 18.8809 1.69524 20.36 2.9998C21.8408 4.31445 22.7812 6.13137 22.9996 8.09941C23.0137 8.20503 23.0075 8.31286 22.9801 8.41582C22.9526 8.51864 22.9042 8.61455 22.8395 8.69902C22.703 8.86234 22.5112 8.97006 22.3004 8.9998C22.1963 9.01366 22.0902 9.00579 21.9889 8.97832C21.8876 8.95084 21.7924 8.90416 21.7096 8.83965C21.5402 8.70674 21.4294 8.51289 21.4 8.29961C21.2584 7.0092 20.7279 5.79195 19.8795 4.80937C19.0263 3.83109 17.8972 3.13366 16.6403 2.80937V3.9998C16.6507 4.08749 16.6288 4.17644 16.5797 4.2498C16.5418 4.3139 16.486 4.36562 16.4196 4.39922C16.351 4.41833 16.2782 4.41839 16.2096 4.39922C16.1334 4.39367 16.0601 4.36575 15.9996 4.31914L13.4098 1.80937C13.3614 1.75529 13.3273 1.68952 13.3102 1.61894C13.2954 1.54986 13.2953 1.47806 13.3102 1.40898C13.3383 1.34205 13.3793 1.28097 13.4303 1.22929C13.4843 1.18096 13.5494 1.14681 13.6198 1.12969C14.0751 1.04682 14.5369 1.00345 14.9996 0.999802Z" fill="black"/>
</g>
<defs>
<clipPath id="clip0_52_746">
<rect width="24" height="24" fill="white"/>
</clipPath>
</defs>
</svg>
