<svg width="24" height="24" viewBox="0 0 24 24" fill="none" xmlns="http://www.w3.org/2000/svg">
<path fill-rule="evenodd" clip-rule="evenodd" d="M8 12C8 9.79395 9.794 7.99995 12 7.99995C14.206 7.99995 16 9.79395 16 12C16 14.206 14.206 16 12 16C9.794 16 8 14.206 8 12ZM14 12C14 10.897 13.103 9.99995 12 9.99995C10.897 9.99995 10 10.897 10 12C10 13.103 10.897 14 12 14C13.103 14 14 13.103 14 12Z" fill="black"/>
<path fill-rule="evenodd" clip-rule="evenodd" d="M10.0321 1.73096H13.9691C14.4301 1.73096 14.8201 2.06996 14.8751 2.51796L15.2141 4.88096C15.6771 5.08896 16.1251 5.34896 16.5521 5.65696L18.7801 4.76296C18.8961 4.71996 19.0121 4.69996 19.1231 4.69996C19.4591 4.69996 19.7581 4.88296 19.9161 5.17296L21.8791 8.56996C22.1031 8.97996 22.0071 9.47196 21.6561 9.74896L19.7661 11.226C19.7901 11.453 19.8101 11.72 19.8101 12.001C19.8101 12.282 19.7901 12.548 19.7661 12.776L21.6541 14.252C22.0061 14.531 22.1021 15.023 21.8831 15.424L19.9111 18.838C19.7571 19.121 19.4511 19.302 19.1191 19.302C19.0041 19.302 18.8921 19.281 18.7841 19.239L16.5501 18.342C16.1031 18.66 15.6631 18.916 15.2151 19.119L14.8751 21.489C14.8201 21.93 14.4301 22.269 13.9691 22.269H10.0321C9.57011 22.269 9.18111 21.93 9.12511 21.48L8.78611 19.118C8.32311 18.909 7.87511 18.649 7.44911 18.342L5.22111 19.236C5.10411 19.279 4.98811 19.299 4.87711 19.299C4.54011 19.299 4.24411 19.116 4.08611 18.828L2.12311 15.431C1.90011 15.022 1.99511 14.53 2.34611 14.252L4.23611 12.775C4.20711 12.486 4.19211 12.235 4.19211 12C4.19211 11.765 4.20611 11.514 4.23711 11.225L2.34911 9.74896C1.99011 9.46496 1.89411 8.95596 2.12611 8.56396L4.09111 5.16396C4.24811 4.87696 4.56911 4.70296 4.89711 4.70296C5.00611 4.70296 5.11511 4.72196 5.21911 4.76196L7.45211 5.65896C7.89811 5.34096 8.33911 5.08496 8.78711 4.88196L9.12711 2.51096C9.18111 2.06996 9.57111 1.73096 10.0321 1.73096ZM13.2361 5.16496L13.0301 3.73096L10.9711 3.72996L10.7661 5.16496C10.6691 5.84296 10.2321 6.42396 9.60811 6.70496C9.28011 6.85296 8.95411 7.04296 8.61211 7.28696C8.26811 7.53196 7.86211 7.65796 7.45211 7.65796C7.20011 7.65796 6.94811 7.61096 6.70711 7.51396L5.35611 6.97196L4.32511 8.75596L5.46911 9.65096C6.01111 10.075 6.29711 10.748 6.22611 11.433C6.20311 11.652 6.19211 11.838 6.19211 12.001C6.19211 12.164 6.20311 12.351 6.22611 12.571C6.29611 13.255 6.01011 13.928 5.46811 14.352L4.32511 15.245L5.35611 17.028L6.70511 16.486C6.94611 16.389 7.19811 16.342 7.45011 16.342C7.86411 16.342 8.27411 16.471 8.62011 16.72C8.93711 16.949 9.27011 17.142 9.60911 17.295C10.2331 17.576 10.6701 18.157 10.7671 18.834L10.9731 20.269H13.0311L13.2361 18.834C13.3331 18.157 13.7691 17.577 14.3921 17.295C14.7231 17.146 15.0491 16.955 15.3901 16.712C15.7341 16.467 16.1411 16.341 16.5511 16.341C16.8031 16.341 17.0551 16.388 17.2961 16.485L18.6471 17.028L19.6771 15.244L18.5341 14.35C17.9911 13.925 17.7051 13.251 17.7771 12.565C17.8001 12.351 17.8111 12.166 17.8111 11.999C17.8111 11.827 17.8001 11.639 17.7781 11.44C17.7041 10.752 17.9901 10.074 18.5351 9.64796L19.6781 8.75496L18.6471 6.97196L17.2981 7.51296C17.0571 7.60996 16.8051 7.65696 16.5531 7.65696C16.1391 7.65696 15.7291 7.52896 15.3831 7.27896C15.0651 7.04896 14.7331 6.85596 14.3961 6.70496C13.7711 6.42496 13.3331 5.84296 13.2361 5.16496Z" fill="black"/>
</svg>
