<svg width="24" height="24" viewBox="0 0 24 24" fill="none" xmlns="http://www.w3.org/2000/svg">
<path d="M18.4602 23C18.4492 23 18.4392 23 18.4282 23H4.1582C2.5042 23 1.1582 21.654 1.1582 20V13C1.1582 11.346 2.5042 10 4.1582 10H6.5092L10.2442 1.594C10.4052 1.233 10.7632 1 11.1582 1C13.3642 1 15.1582 2.794 15.1582 5V8H19.8182C19.9682 7.998 20.1302 8.009 20.2942 8.034C21.0842 8.153 21.7812 8.575 22.2572 9.221C22.7332 9.866 22.9282 10.658 22.8072 11.45L21.4272 20.451C21.2062 21.91 19.9342 23 18.4602 23ZM8.1582 21H18.4382C18.4422 21 18.4462 21 18.4492 21C18.9512 21 19.3762 20.637 19.4502 20.149L20.8302 11.148C20.8702 10.884 20.8052 10.621 20.6462 10.406C20.4872 10.191 20.2552 10.051 19.9922 10.01C19.9372 10.002 19.8862 9.995 19.8362 9.999H14.1582C13.6052 9.999 13.1582 9.552 13.1582 8.999V5C13.1582 4.109 12.5722 3.353 11.7652 3.095L8.1582 11.212V21ZM4.1582 12C3.6062 12 3.1582 12.448 3.1582 13V20C3.1582 20.552 3.6062 21 4.1582 21H6.1582V12H4.1582Z" fill="black"/>
</svg>
