<svg width="24" height="24" viewBox="0 0 24 24" fill="none" xmlns="http://www.w3.org/2000/svg">
<circle cx="12" cy="12" r="10" fill="white"/>
<path fill-rule="evenodd" clip-rule="evenodd" d="M2 12.001C2 6.48098 6.47 2.00098 11.99 2.00098C17.52 2.00098 22 6.48098 22 12.001C22 17.521 17.52 22.001 11.99 22.001C6.47 22.001 2 17.521 2 12.001ZM9.73495 15.5949C9.92295 15.7869 10.1589 15.8669 10.4489 15.8949C10.7139 15.8949 10.9679 15.7889 11.1559 15.6009L16.9419 9.81394C17.3329 9.42294 17.3329 8.78994 16.9419 8.39994C16.5509 8.00894 15.9189 8.00894 15.5279 8.39994L10.4559 13.4739L8.47895 11.4589C8.08995 11.0629 7.45795 11.0579 7.06495 11.4449C6.66995 11.8319 6.66395 12.4649 7.05095 12.8589L9.73495 15.5949Z" fill="#3E9E3E"/>
</svg>
