<svg width="24" height="24" viewBox="0 0 24 24" fill="none" xmlns="http://www.w3.org/2000/svg">
<path d="M3.61318 5.33139L6.63966 2.77139C7.06356 2.41139 7.12271 1.78139 6.76782 1.36139C6.42278 0.93139 5.80171 0.88139 5.38766 1.23139L2.35133 3.79139C1.93728 4.15139 1.87814 4.78139 2.23303 5.20139C2.57807 5.63139 3.19914 5.68139 3.61318 5.33139Z" fill="black"/>
<path d="M18.6141 1.23139L21.6489 3.79139C22.0627 4.15139 22.1218 4.78139 21.7671 5.20139C21.4124 5.63139 20.7916 5.68139 20.3778 5.33139L17.3529 2.77139C16.939 2.41139 16.8799 1.78139 17.2248 1.36139C17.5795 0.93139 18.2002 0.88139 18.6141 1.23139Z" fill="black"/>
<path d="M14.88 15.548C15.023 15.619 15.176 15.653 15.326 15.653C15.693 15.653 16.046 15.451 16.221 15.101C16.468 14.607 16.268 14.006 15.774 13.759L13 12.372V8C13 7.448 12.552 7 12 7C11.448 7 11 7.448 11 8V12.99C11 13.368 11.214 13.715 11.553 13.884L14.88 15.548Z" fill="black"/>
<path fill-rule="evenodd" clip-rule="evenodd" d="M12 3C6.47778 3 2 7.47778 2 13C2 18.5222 6.47778 23 12 23C17.5222 23 22 18.5222 22 13C22 7.47778 17.5222 3 12 3ZM4 13C4 8.58235 7.58235 5 12 5C16.4177 5 20 8.58235 20 13C20 17.4177 16.4177 21 12 21C7.58235 21 4 17.4177 4 13Z" fill="black"/>
</svg>
