<svg width="48" height="48" viewBox="0 0 48 48" fill="none" xmlns="http://www.w3.org/2000/svg">
<path d="M38.3311 11.3287L35.4678 9.05713L33.6148 11.3927L36.4782 13.6643L38.3311 11.3287Z" fill="#8C9EAA"/>
<path d="M36.2157 7.26211L34.5445 9.36835C34.4616 9.47168 34.4654 9.62349 34.5496 9.72683C35.6213 11.0242 36.3816 11.6264 37.8882 12.3752C38.0069 12.4339 38.1561 12.4033 38.2378 12.2987L39.909 10.1925C39.9919 10.0879 39.9881 9.93605 39.9039 9.83399C38.831 8.53912 38.0707 7.93698 36.5666 7.18684C36.4467 7.12689 36.2974 7.15878 36.2157 7.26211Z" fill="#E56353"/>
<path d="M10.9433 13.6641L13.8066 11.3926L11.9537 9.05696L9.0904 11.3285L10.9433 13.6641Z" fill="#8C9EAA"/>
<path d="M11.2065 7.26162L12.8777 9.36786C12.9607 9.47119 12.9568 9.623 12.8726 9.72634C11.801 11.0238 11.0407 11.6259 9.53405 12.3748C9.4154 12.4334 9.26614 12.4028 9.1845 12.2982L7.51329 10.192C7.43037 10.0874 7.43419 9.93556 7.51839 9.8335C8.59128 8.53863 9.35162 7.93649 10.8557 7.18636C10.9756 7.1264 11.1236 7.15829 11.2065 7.26162Z" fill="#E56353"/>
<path d="M20.9697 6.01367V8.05229C22.3475 8.33423 25.075 8.33423 26.4528 8.05229V6.01367H20.9697Z" fill="#8C9EAA"/>
<path d="M20.1299 1.44559V6.28572C20.1299 7.14301 27.2918 7.14301 27.2918 6.28572V1.44559C27.2918 0.738838 20.1299 0.738838 20.1299 1.44559Z" fill="#3A556A"/>
<path d="M24.0008 44.2853C34.1004 44.2853 42.2878 36.098 42.2878 25.9984C42.2878 15.8988 34.1004 7.71143 24.0008 7.71143C13.9012 7.71143 5.71387 15.8988 5.71387 25.9984C5.71387 36.098 13.9012 44.2853 24.0008 44.2853Z" fill="#3A556A"/>
<path d="M39.2074 29.5798C41.1834 21.1805 35.9762 12.7696 27.5769 10.7936C19.1776 8.8176 10.7668 14.0247 8.79076 22.424C6.81476 30.8233 12.0219 39.2342 20.4212 41.2102C28.8205 43.1862 37.2314 37.9791 39.2074 29.5798Z" fill="#EBF0F3"/>
<path d="M38.7105 26.0012C38.4744 17.9819 32.0205 11.5267 24 11.292V26.0025H38.7105V26.0012Z" fill="#3AC9F7"/>
<path d="M24.0008 26.0014V11.2922C23.8503 11.2884 23.701 11.2808 23.5492 11.2808C15.1702 11.2808 8.37695 18.074 8.37695 26.453C8.37695 34.8321 15.1702 41.6253 23.5492 41.6253C31.9295 41.6253 38.7215 34.8321 38.7215 26.453C38.7215 26.3025 38.7139 26.152 38.71 26.0027H24.0008V26.0014Z" fill="white"/>
<path d="M24.001 12.4736C23.8378 12.4736 23.7051 12.6063 23.7051 12.7696V14.2188C23.7051 14.3821 23.8378 14.5148 24.001 14.5148C24.1643 14.5148 24.297 14.3821 24.297 14.2188V12.7696C24.297 12.605 24.1643 12.4736 24.001 12.4736Z" fill="#3A556A"/>
<path d="M24.001 37.4897C23.8378 37.4897 23.7051 37.6224 23.7051 37.7857V39.2349C23.7051 39.3982 23.8378 39.5309 24.001 39.5309C24.1643 39.5309 24.297 39.3982 24.297 39.2349V37.7844C24.297 37.6211 24.1643 37.4897 24.001 37.4897Z" fill="#3A556A"/>
<path d="M37.2345 25.7061H35.7852C35.6219 25.7061 35.4893 25.8387 35.4893 26.002C35.4893 26.1653 35.6219 26.298 35.7852 26.298H37.2345C37.3978 26.298 37.5304 26.1653 37.5304 26.002C37.5292 25.8387 37.3978 25.7061 37.2345 25.7061Z" fill="#3A556A"/>
<path d="M12.5129 26.002C12.5129 25.8387 12.3802 25.7061 12.2169 25.7061H10.7676C10.6044 25.7061 10.4717 25.8387 10.4717 26.002C10.4717 26.1653 10.6044 26.298 10.7676 26.298H12.2169C12.3815 26.298 12.5129 26.1666 12.5129 26.002Z" fill="#3A556A"/>
<path d="M13.6485 31.6384L12.3932 32.363C12.2516 32.4446 12.2031 32.6258 12.2848 32.7674C12.3396 32.8618 12.4391 32.9154 12.5412 32.9154C12.5909 32.9154 12.642 32.9026 12.6892 32.8758L13.9445 32.1512C14.0861 32.0696 14.1346 31.8884 14.0529 31.7468C13.9713 31.6052 13.7901 31.5554 13.6485 31.6384Z" fill="#3A556A"/>
<path d="M34.2053 20.4061C34.255 20.4061 34.306 20.3933 34.3532 20.3665L35.6086 19.6419C35.7502 19.5603 35.7986 19.3791 35.717 19.2375C35.6353 19.0959 35.4542 19.0462 35.3126 19.1291L34.0573 19.8537C33.9157 19.9353 33.8672 20.1165 33.9488 20.2581C34.0037 20.3525 34.1032 20.4061 34.2053 20.4061Z" fill="#3A556A"/>
<path d="M17.6404 14.3942C17.5587 14.2526 17.3789 14.2041 17.236 14.2857C17.0944 14.3674 17.0459 14.5485 17.1275 14.6902L17.8522 15.9455C17.907 16.0399 18.0052 16.0935 18.1086 16.0935C18.1583 16.0935 18.2094 16.0807 18.2566 16.0539C18.3982 15.9723 18.4466 15.7911 18.365 15.6495L17.6404 14.3942Z" fill="#3A556A"/>
<path d="M30.1482 36.0583C30.0678 35.9167 29.8854 35.867 29.7438 35.9499C29.6022 36.0315 29.5537 36.2127 29.6354 36.3543L30.36 37.6096C30.4148 37.704 30.5143 37.7576 30.6164 37.7576C30.6661 37.7576 30.7172 37.7448 30.7644 37.718C30.906 37.6364 30.9545 37.4552 30.8728 37.3136L30.1482 36.0583Z" fill="#3A556A"/>
<path d="M35.6086 32.3624L34.3532 31.6378C34.2129 31.5561 34.0305 31.6046 33.9488 31.7462C33.8672 31.8878 33.9157 32.069 34.0573 32.1506L35.3126 32.8752C35.3598 32.902 35.4108 32.9148 35.4606 32.9148C35.5626 32.9148 35.6621 32.8612 35.717 32.7668C35.7986 32.6239 35.7502 32.4441 35.6086 32.3624Z" fill="#3A556A"/>
<path d="M13.9445 19.8546L12.6892 19.13C12.5488 19.0483 12.3664 19.0968 12.2848 19.2384C12.2031 19.38 12.2516 19.5612 12.3932 19.6428L13.6485 20.3674C13.6957 20.3942 13.7468 20.407 13.7965 20.407C13.8986 20.407 13.9981 20.3534 14.0529 20.259C14.1346 20.1174 14.0861 19.9362 13.9445 19.8546Z" fill="#3A556A"/>
<path d="M18.2575 35.9518C18.1159 35.8701 17.9348 35.9186 17.8531 36.0602L17.1285 37.3155C17.0469 37.4571 17.0953 37.6383 17.237 37.7199C17.2842 37.7467 17.3352 37.7595 17.3849 37.7595C17.487 37.7595 17.5865 37.7059 17.6414 37.6115L18.366 36.3562C18.4476 36.2133 18.3991 36.0321 18.2575 35.9518Z" fill="#3A556A"/>
<path d="M30.7644 14.2857C30.6228 14.2041 30.4416 14.2526 30.36 14.3942L29.6354 15.6495C29.5537 15.7911 29.6022 15.9723 29.7438 16.0539C29.791 16.0807 29.842 16.0935 29.8918 16.0935C29.9938 16.0935 30.0933 16.0399 30.1482 15.9455L30.8728 14.6902C30.9545 14.5485 30.906 14.3674 30.7644 14.2857Z" fill="#3A556A"/>
<path d="M21.9277 26.9008L21.0576 26.0014L21.9277 25.1021L37.0885 25.7208L37.5133 26.0014L37.0885 26.2821L21.9277 26.9008Z" fill="#E56353"/>
<path d="M24.0014 24.3003C23.1352 24.3003 22.4272 24.9509 22.3213 25.7891H25.6828C25.5757 24.9496 24.8677 24.3003 24.0014 24.3003Z" fill="#3A556A"/>
<path d="M24.0008 27.7038C24.867 27.7038 25.575 27.0532 25.6809 26.2163H22.3193C22.4265 27.0545 23.1345 27.7038 24.0008 27.7038Z" fill="#3A556A"/>
<path d="M25.6811 25.7876H22.3195C22.3106 25.859 22.2979 25.9279 22.2979 26.0019C22.2979 26.0759 22.3106 26.1448 22.3195 26.2162H25.6811C25.69 26.1448 25.7028 26.0759 25.7028 26.0019C25.7028 25.9292 25.69 25.859 25.6811 25.7876Z" fill="#64798A"/>
</svg>
