<svg width="24" height="24" viewBox="0 0 24 24" fill="none" xmlns="http://www.w3.org/2000/svg">
<path fill-rule="evenodd" clip-rule="evenodd" d="M6.29312 17.7069C5.90221 17.316 5.90238 16.6838 6.29312 16.2928L11.0461 11.5409C11.5731 11.0159 12.4292 11.0159 12.9552 11.5399L17.7072 16.2928C17.9022 16.4878 18.0002 16.7438 18.0002 16.9998C18.0001 17.2558 17.9021 17.5119 17.7072 17.7069C17.3162 18.0976 16.684 18.0978 16.2931 17.7069L12.0011 13.4139L7.70719 17.7069C7.31617 18.0976 6.68304 18.0978 6.29312 17.7069ZM6.29312 10.7069C5.90221 10.316 5.90237 9.68383 6.29312 9.29281L11.0461 4.54086C11.5731 4.01586 12.4292 4.01588 12.9552 4.53988L17.7072 9.29281C17.9022 9.48781 18.0002 9.74384 18.0002 9.99984C18.0001 10.2558 17.9021 10.5119 17.7072 10.7069C17.3162 11.0976 16.684 11.0978 16.2931 10.7069L12.0011 6.41391L7.70719 10.7069C7.31617 11.0976 6.68304 11.0978 6.29312 10.7069Z" fill="black"/>
</svg>
