<svg width="12" height="24" viewBox="0 0 12 24" fill="none" xmlns="http://www.w3.org/2000/svg">
<path d="M6 16.001C4.9 16.001 4 16.901 4 18.001C4 19.101 4.9 20.001 6 20.001C7.1 20.001 8 19.101 8 18.001C8 16.901 7.1 16.001 6 16.001ZM6 14.001C7.1 14.001 8 13.101 8 12.001C8 10.901 7.1 10.001 6 10.001C4.9 10.001 4 10.901 4 12.001C4 13.101 4.9 14.001 6 14.001ZM6 8.00098C7.1 8.00098 8 7.10098 8 6.00098C8 4.90098 7.1 4.00098 6 4.00098C4.9 4.00098 4 4.90098 4 6.00098C4 7.10098 4.9 8.00098 6 8.00098Z" fill="black"/>
</svg>
