<svg width="24" height="24" viewBox="0 0 24 24" fill="none" xmlns="http://www.w3.org/2000/svg">
<path fill-rule="evenodd" clip-rule="evenodd" d="M10.4949 21.2711C10.6168 21.3226 10.7477 21.3494 10.88 21.3499V21.3999C11.1452 21.3999 11.3996 21.2946 11.5871 21.107C11.7746 20.9195 11.88 20.6651 11.88 20.3999V3.69991C11.8792 3.50214 11.8197 3.30905 11.7092 3.14507C11.5986 2.98108 11.4419 2.85357 11.2589 2.77864C11.0758 2.70372 10.8747 2.68475 10.6809 2.72413C10.4871 2.76352 10.3093 2.85949 10.17 2.99991L5.25 7.86991H1.5C1.23478 7.86991 0.98043 7.97527 0.792893 8.1628C0.605357 8.35034 0.5 8.60469 0.5 8.86991V15.1299C0.5 15.3951 0.605357 15.6495 0.792893 15.837C0.98043 16.0246 1.23478 16.1299 1.5 16.1299H5.25L10.17 21.0499C10.2626 21.1444 10.3731 21.2196 10.4949 21.2711ZM5.67 14.1299H2.5V9.86991H5.67C5.80161 9.87067 5.93207 9.84545 6.05391 9.79568C6.17574 9.74592 6.28656 9.67259 6.38 9.57991L9.88 6.06991V17.9299L6.38 14.4199C6.28656 14.3272 6.17574 14.2539 6.05391 14.2041C5.93207 14.1544 5.80161 14.1291 5.67 14.1299Z" fill="black"/>
<path d="M18.8914 20.2332C19.0569 20.343 19.2514 20.4011 19.45 20.3999C19.7123 20.3988 19.9637 20.2947 20.15 20.1099C22.2873 17.964 23.4873 15.0586 23.4873 12.0299C23.4873 9.0012 22.2873 6.09586 20.15 3.94991C19.9626 3.76366 19.7092 3.65912 19.445 3.65912C19.1808 3.65912 18.9273 3.76366 18.74 3.94991C18.6462 4.04287 18.5719 4.15348 18.5211 4.27533C18.4703 4.39719 18.4442 4.5279 18.4442 4.65991C18.4442 4.79192 18.4703 4.92263 18.5211 5.04449C18.5719 5.16635 18.6462 5.27695 18.74 5.36991C20.5035 7.13772 21.494 9.53285 21.494 12.0299C21.494 14.527 20.5035 16.9221 18.74 18.6899C18.5989 18.8298 18.5028 19.0085 18.4637 19.2032C18.4246 19.398 18.4444 19.6 18.5206 19.7834C18.5968 19.9668 18.7258 20.1234 18.8914 20.2332Z" fill="black"/>
<path d="M15.2114 16.5432C15.3769 16.653 15.5714 16.7111 15.77 16.7099C16.0323 16.7088 16.2837 16.6047 16.47 16.4199C17.6321 15.2524 18.2845 13.6722 18.2845 12.0249C18.2845 10.3776 17.6321 8.79742 16.47 7.62991C16.2826 7.44366 16.0292 7.33912 15.765 7.33912C15.5008 7.33912 15.2473 7.44366 15.06 7.62991C14.9662 7.72287 14.8919 7.83348 14.8411 7.95533C14.7903 8.07719 14.7642 8.2079 14.7642 8.33991C14.7642 8.47192 14.7903 8.60263 14.8411 8.72449C14.8919 8.84635 14.9662 8.95695 15.06 9.04991C15.8483 9.83928 16.2911 10.9093 16.2911 12.0249C16.2911 13.1405 15.8483 14.2105 15.06 14.9999C14.9189 15.1398 14.8228 15.3185 14.7837 15.5132C14.7446 15.708 14.7644 15.9099 14.8406 16.0934C14.9168 16.2768 15.0458 16.4334 15.2114 16.5432Z" fill="black"/>
</svg>
