<svg width="24" height="24" viewBox="0 0 24 24" fill="none" xmlns="http://www.w3.org/2000/svg">
<path fill-rule="evenodd" clip-rule="evenodd" d="M10.4949 21.2711C10.6168 21.3226 10.7477 21.3494 10.88 21.3499V21.3999C11.1452 21.3999 11.3996 21.2946 11.5871 21.107C11.7746 20.9195 11.88 20.6651 11.88 20.3999V3.69991C11.8792 3.50214 11.8197 3.30905 11.7092 3.14507C11.5986 2.98108 11.4419 2.85357 11.2589 2.77864C11.0758 2.70372 10.8747 2.68475 10.6809 2.72413C10.4871 2.76352 10.3093 2.85949 10.17 2.99991L5.25 7.86991H1.5C1.23478 7.86991 0.98043 7.97527 0.792893 8.1628C0.605357 8.35034 0.5 8.60469 0.5 8.86991V15.1299C0.5 15.3951 0.605357 15.6495 0.792893 15.837C0.98043 16.0246 1.23478 16.1299 1.5 16.1299H5.25L10.17 21.0499C10.2626 21.1444 10.3731 21.2196 10.4949 21.2711ZM5.67 14.1299H2.5V9.86991H5.67C5.80161 9.87067 5.93207 9.84545 6.05391 9.79568C6.17574 9.74592 6.28656 9.67259 6.38 9.57991L9.88 6.06991V17.9299L6.38 14.4199C6.28656 14.3272 6.17574 14.2539 6.05391 14.2041C5.93207 14.1544 5.80161 14.1291 5.67 14.1299Z" fill="black"/>
<path d="M23.2098 9.64992L20.7898 12.0699L23.2598 14.4899C23.3535 14.5829 23.4279 14.6935 23.4787 14.8153C23.5294 14.9372 23.5556 15.0679 23.5556 15.1999C23.5556 15.3319 23.5294 15.4626 23.4787 15.5845C23.4279 15.7064 23.3535 15.817 23.2598 15.9099C23.1668 16.0037 23.0562 16.078 22.9344 16.1288C22.8125 16.1796 22.6818 16.2057 22.5498 16.2057C22.4178 16.2057 22.2871 16.1796 22.1652 16.1288C22.0433 16.078 21.9327 16.0037 21.8398 15.9099L19.4198 13.4899L16.9998 15.9099C16.8115 16.0982 16.5561 16.204 16.2898 16.204C16.0235 16.204 15.7681 16.0982 15.5798 15.9099C15.3915 15.7216 15.2857 15.4662 15.2857 15.1999C15.2857 14.9336 15.3915 14.6782 15.5798 14.4899L17.9998 12.0699L15.5898 9.64992C15.4851 9.56028 15.4001 9.44996 15.3401 9.32589C15.28 9.20183 15.2463 9.0667 15.241 8.92898C15.2357 8.79126 15.2589 8.65393 15.3091 8.5256C15.3594 8.39728 15.4357 8.28073 15.5331 8.18327C15.6306 8.08582 15.7471 8.00956 15.8755 7.95929C16.0038 7.90901 16.1411 7.88581 16.2788 7.89113C16.4165 7.89645 16.5517 7.93018 16.6757 7.9902C16.7998 8.05022 16.9101 8.13524 16.9998 8.23992L19.3698 10.6599L21.7898 8.23992C21.8827 8.1462 21.9933 8.0718 22.1152 8.02103C22.2371 7.97026 22.3678 7.94413 22.4998 7.94413C22.6318 7.94413 22.7625 7.97026 22.8844 8.02103C23.0062 8.0718 23.1168 8.1462 23.2098 8.23992C23.396 8.42729 23.5006 8.68074 23.5006 8.94492C23.5006 9.20911 23.396 9.46256 23.2098 9.64992Z" fill="black"/>
</svg>
